{
	"asset":{
		"generator":"Khronos glTF Blender I/O v3.6.27",
		"version":"2.0"
	},
	"scene":0,
	"scenes":[
		{
			"name":"Scene",
			"nodes":[
				0
			]
		}
	],
	"nodes":[
		{
			"mesh":0,
			"name":"normal"
		}
	],
	"materials":[
		{
			"name":"normal.001",
			"pbrMetallicRoughness":{
				"baseColorTexture":{
					"index":0
				},
				"metallicFactor":0.20000000298023224,
				"roughnessFactor":0.5
			}
		}
	],
	"meshes":[
		{
			"name":"normal.001",
			"primitives":[
				{
					"attributes":{
						"POSITION":0,
						"NORMAL":1,
						"TEXCOORD_0":2
					},
					"indices":3,
					"material":0
				}
			]
		}
	],
	"textures":[
		{
			"sampler":0,
			"source":0
		}
	],
	"images":[
		{
			"bufferView":4,
			"mimeType":"image/png",
			"name":"Image_0"
		}
	],
	"accessors":[
		{
			"bufferView":0,
			"componentType":5126,
			"count":11808,
			"max":[
				26.5,
				10,
				5.499998092651367
			],
			"min":[
				-27.5,
				-2.2155907117848983e-06,
				-5.500003337860107
			],
			"type":"VEC3"
		},
		{
			"bufferView":1,
			"componentType":5126,
			"count":11808,
			"type":"VEC3"
		},
		{
			"bufferView":2,
			"componentType":5126,
			"count":11808,
			"type":"VEC2"
		},
		{
			"bufferView":3,
			"componentType":5123,
			"count":17712,
			"type":"SCALAR"
		}
	],
	"bufferViews":[
		{
			"buffer":0,
			"byteLength":141696,
			"byteOffset":0,
			"target":34962
		},
		{
			"buffer":0,
			"byteLength":141696,
			"byteOffset":141696,
			"target":34962
		},
		{
			"buffer":0,
			"byteLength":94464,
			"byteOffset":283392,
			"target":34962
		},
		{
			"buffer":0,
			"byteLength":35424,
			"byteOffset":377856,
			"target":34963
		},
		{
			"buffer":0,
			"byteLength":82,
			"byteOffset":413280
		}
	],
	"samplers":[
		{
			"magFilter":9729,
			"minFilter":9987
		}
	],
	"buffers":[
		{
			"byteLength":413364,
			"uri":"data:application/octet-stream;base64,"
		}
	]
}
